<svg width="127" height="40" viewBox="0 0 127 40" fill="none" xmlns="http://www.w3.org/2000/svg">
<g clip-path="url(#clip0_4_463)">
<g clip-path="url(#clip1_4_463)">
<g clip-path="url(#clip2_4_463)">
<path d="M117.471 0.0013507H10.0341C9.66744 0.0013507 9.30516 0.0013507 8.93945 0.00335058C8.63332 0.00535046 8.32963 0.0111601 8.02055 0.0160498C7.34911 0.0239512 6.67924 0.0830221 6.01677 0.192749C5.35524 0.304865 4.71442 0.516236 4.11601 0.819712C3.51832 1.12576 2.9722 1.52343 2.49745 1.9983C2.02021 2.47184 1.6224 3.01919 1.3193 3.6193C1.01537 4.21821 0.804622 4.86 0.694338 5.5225C0.583006 6.18417 0.523097 6.85347 0.515149 7.52438C0.50587 7.83097 0.50489 8.13857 0.5 8.44519V31.5581C0.50489 31.8686 0.50587 32.1693 0.515149 32.4799C0.523099 33.1508 0.583008 33.8201 0.694338 34.4817C0.804318 35.1446 1.01508 35.7868 1.3193 36.3859C1.62226 36.9841 2.02013 37.5292 2.49745 38.0001C2.9704 38.4771 3.51687 38.875 4.11601 39.1787C4.71442 39.483 5.35516 39.6956 6.01677 39.8095C6.67935 39.9183 7.34915 39.9774 8.02055 39.9863C8.32963 39.9931 8.63332 39.997 8.93945 39.997C9.30515 39.999 9.66746 39.999 10.0341 39.999H117.471C117.831 39.999 118.196 39.999 118.555 39.997C118.86 39.997 119.172 39.9931 119.477 39.9863C120.147 39.9779 120.816 39.9188 121.477 39.8095C122.141 39.6948 122.784 39.4823 123.385 39.1787C123.984 38.8748 124.53 38.4769 125.002 38.0001C125.478 37.5273 125.877 36.9826 126.184 36.3859C126.486 35.7863 126.694 35.1442 126.803 34.4817C126.914 33.82 126.976 33.1509 126.988 32.4799C126.992 32.1693 126.992 31.8686 126.992 31.5581C127 31.1948 127 30.8335 127 30.4643V9.53691C127 9.17073 127 8.80747 126.992 8.44519C126.992 8.13857 126.992 7.83097 126.988 7.52434C126.976 6.85337 126.914 6.18422 126.803 5.52246C126.694 4.86034 126.485 4.2186 126.184 3.61926C125.566 2.4164 124.588 1.43729 123.385 0.819622C122.784 0.516887 122.141 0.305573 121.477 0.192659C120.816 0.0824487 120.147 0.0233572 119.477 0.0159098C119.172 0.0110301 118.86 0.00517047 118.555 0.00322058C118.196 0.0012207 117.831 0.0013507 117.471 0.0013507Z" fill="#A6A6A6"/>
<path d="M8.94441 39.124C8.63976 39.124 8.34244 39.12 8.04018 39.1133C7.414 39.1051 6.78928 39.0506 6.17115 38.9502C5.59478 38.8509 5.03642 38.6662 4.51451 38.4023C3.99738 38.1405 3.52572 37.7973 3.11759 37.3858C2.70356 36.9791 2.35886 36.5074 2.09714 35.9893C1.83255 35.468 1.64943 34.9091 1.55418 34.3322C1.45131 33.7124 1.39565 33.0856 1.38769 32.4573C1.38135 32.2465 1.37305 31.5443 1.37305 31.5443V8.44511C1.37305 8.44511 1.38189 7.75374 1.38774 7.55062C1.39536 6.92334 1.45069 6.29755 1.55325 5.67867C1.64869 5.10022 1.83195 4.53975 2.09668 4.01666C2.35743 3.49901 2.70022 3.02696 3.11175 2.6188C3.52284 2.20676 3.99601 1.86177 4.51402 1.59639C5.03473 1.33329 5.59203 1.14994 6.16724 1.05248C6.7874 0.951052 7.41429 0.896215 8.04264 0.88843L8.94491 0.876221H118.55L119.463 0.88892C120.086 0.896319 120.707 0.950666 121.322 1.0515C121.903 1.15018 122.466 1.33481 122.993 1.59932C124.03 2.13413 124.875 2.98026 125.407 4.0191C125.668 4.53858 125.848 5.09448 125.943 5.66793C126.046 6.29189 126.104 6.9226 126.116 7.55502C126.119 7.83821 126.119 8.14239 126.119 8.44511C126.127 8.82009 126.127 9.177 126.127 9.53684V30.4643C126.127 30.8275 126.127 31.182 126.119 31.5394C126.119 31.8646 126.119 32.1625 126.115 32.469C126.104 33.0902 126.047 33.7096 125.944 34.3224C125.851 34.9035 125.669 35.4667 125.405 35.9923C125.141 36.5047 124.798 36.9723 124.389 37.378C123.98 37.7917 123.508 38.137 122.99 38.4004C122.464 38.6664 121.902 38.8517 121.322 38.9502C120.704 39.0511 120.079 39.1056 119.453 39.1133C119.16 39.12 118.853 39.124 118.555 39.124L117.471 39.1259L8.94441 39.124Z" fill="black"/>
<path d="M25.2703 20.3007C25.2811 19.4661 25.5028 18.6477 25.9148 17.9218C26.3268 17.1959 26.9157 16.586 27.6267 16.1489C27.175 15.5038 26.5791 14.9728 25.8863 14.5983C25.1935 14.2238 24.423 14.0159 23.6358 13.9913C21.9567 13.8151 20.3288 14.9961 19.4732 14.9961C18.6009 14.9961 17.2835 14.0088 15.8649 14.038C14.9472 14.0677 14.053 14.3345 13.2691 14.8125C12.4853 15.2906 11.8387 15.9635 11.3922 16.7657C9.45833 20.1139 10.9008 25.0347 12.7533 27.7411C13.6802 29.0664 14.7634 30.5468 16.1808 30.4943C17.5677 30.4368 18.0857 29.6099 19.7599 29.6099C21.4186 29.6099 21.9046 30.4943 23.3507 30.4609C24.839 30.4367 25.7767 29.1297 26.671 27.7919C27.337 26.8476 27.8494 25.804 28.1893 24.6996C27.3247 24.3339 26.5868 23.7217 26.0677 22.9395C25.5487 22.1572 25.2713 21.2395 25.2703 20.3007Z" fill="white"/>
<path d="M22.539 12.2116C23.3506 11.2374 23.7504 9.98518 23.6536 8.72095C22.4137 8.85117 21.2685 9.44373 20.446 10.3806C20.0438 10.8382 19.7358 11.3707 19.5396 11.9474C19.3433 12.5242 19.2627 13.134 19.3023 13.7419C19.9224 13.7483 20.5359 13.6139 21.0966 13.3488C21.6572 13.0837 22.1504 12.6949 22.539 12.2116Z" fill="white"/>
<path d="M36.1532 14.7024V9.57887H34.2762V8.7356H38.953V9.57886H37.08V14.7024H36.1532Z" fill="white"/>
<path d="M43.2624 13.4866C43.1416 13.8981 42.88 14.2541 42.5233 14.4922C42.1667 14.7304 41.7376 14.8355 41.3112 14.7893C41.0145 14.7971 40.7197 14.7403 40.4472 14.6228C40.1747 14.5053 39.9311 14.3298 39.7331 14.1087C39.5352 13.8876 39.3878 13.626 39.3011 13.3422C39.2144 13.0583 39.1905 12.7591 39.2311 12.4651C39.1916 12.1702 39.2159 11.8703 39.3024 11.5856C39.3889 11.3009 39.5355 11.0382 39.7324 10.8151C39.9293 10.592 40.1718 10.4138 40.4435 10.2926C40.7152 10.1714 41.0098 10.11 41.3073 10.1125C42.5602 10.1125 43.3161 10.9685 43.3161 12.3825V12.6926H40.1364V12.7424C40.1225 12.9076 40.1432 13.074 40.1974 13.2307C40.2515 13.3875 40.3378 13.5312 40.4507 13.6526C40.5636 13.7741 40.7006 13.8706 40.853 13.936C41.0054 14.0014 41.1698 14.0342 41.3356 14.0324C41.5482 14.0579 41.7635 14.0196 41.9543 13.9224C42.1451 13.8252 42.3026 13.6735 42.4069 13.4865L43.2624 13.4866ZM40.1364 12.0354H42.4108C42.422 11.8843 42.4015 11.7325 42.3505 11.5898C42.2996 11.447 42.2193 11.3166 42.1149 11.2067C42.0105 11.0968 41.8843 11.01 41.7444 10.9519C41.6045 10.8937 41.4539 10.8654 41.3024 10.8689C41.1487 10.867 40.9962 10.8958 40.8538 10.9538C40.7114 11.0117 40.5821 11.0976 40.4734 11.2063C40.3648 11.315 40.279 11.4444 40.2211 11.5868C40.1632 11.7292 40.1344 11.8817 40.1364 12.0354ZM40.7731 9.44653L41.8112 8.02417H42.8532L41.6911 9.44653H40.7731Z" fill="white"/>
<path d="M44.55 8.44165H45.4387V14.7024H44.55V8.44165Z" fill="white"/>
<path d="M50.7052 13.4866C50.5845 13.8981 50.3229 14.2541 49.9662 14.4922C49.6095 14.7304 49.1805 14.8355 48.7541 14.7893C48.4574 14.7971 48.1626 14.7403 47.8901 14.6228C47.6176 14.5053 47.3739 14.3298 47.176 14.1087C46.9781 13.8876 46.8307 13.626 46.744 13.3422C46.6573 13.0583 46.6334 12.7591 46.674 12.4651C46.6345 12.1702 46.6588 11.8703 46.7453 11.5856C46.8318 11.3009 46.9784 11.0382 47.1753 10.8151C47.3721 10.592 47.6146 10.4138 47.8864 10.2926C48.1581 10.1714 48.4526 10.11 48.7502 10.1125C50.0031 10.1125 50.759 10.9685 50.759 12.3825V12.6926H47.5792V12.7424C47.5653 12.9076 47.5861 13.074 47.6402 13.2307C47.6943 13.3875 47.7806 13.5312 47.8935 13.6526C48.0064 13.7741 48.1435 13.8706 48.2959 13.936C48.4483 14.0014 48.6126 14.0342 48.7785 14.0324C48.991 14.0579 49.2064 14.0196 49.3972 13.9224C49.5879 13.8252 49.7455 13.6735 49.8497 13.4865L50.7052 13.4866ZM47.5792 12.0354H49.8537C49.8649 11.8843 49.8443 11.7325 49.7934 11.5898C49.7424 11.447 49.6622 11.3166 49.5578 11.2067C49.4534 11.0968 49.3272 11.01 49.1872 10.9519C49.0473 10.8937 48.8968 10.8654 48.7452 10.8689C48.5915 10.867 48.439 10.8958 48.2966 10.9538C48.1543 11.0117 48.0249 11.0976 47.9163 11.2063C47.8076 11.315 47.7218 11.4444 47.6639 11.5868C47.606 11.7292 47.5772 11.8817 47.5792 12.0354ZM48.216 9.44653L49.254 8.02417H50.296L49.134 9.44653H48.216Z" fill="white"/>
<path d="M54.9003 11.671C54.8436 11.4375 54.7052 11.232 54.5101 11.0918C54.315 10.9515 54.0762 10.8857 53.8368 10.9064C53.0926 10.9064 52.6376 11.4767 52.6376 12.4362C52.6376 13.4122 53.0966 13.9953 53.8368 13.9953C54.0738 14.0227 54.3127 13.9626 54.5085 13.8263C54.7044 13.69 54.8437 13.4868 54.9003 13.255H55.7645C55.7074 13.711 55.4743 14.1266 55.1151 14.4132C54.7559 14.6998 54.2989 14.8347 53.8417 14.7892C53.5406 14.7987 53.241 14.7423 52.964 14.624C52.687 14.5056 52.4392 14.3282 52.2379 14.1041C52.0366 13.88 51.8867 13.6146 51.7987 13.3265C51.7107 13.0384 51.6867 12.7345 51.7284 12.4362C51.6888 12.1401 51.7143 11.8389 51.8032 11.5536C51.8921 11.2683 52.0421 11.0059 52.2429 10.7846C52.4436 10.5634 52.6903 10.3886 52.9656 10.2725C53.2409 10.1564 53.5382 10.1018 53.8368 10.1125C54.2978 10.07 54.7572 10.2091 55.1172 10.5002C55.4773 10.7913 55.7095 11.2114 55.7645 11.6711L54.9003 11.671Z" fill="white"/>
<path d="M56.9439 8.44165H57.8248V10.9231H57.8951C58.0132 10.6638 58.2084 10.4472 58.4541 10.3028C58.6998 10.1585 58.984 10.0934 59.2681 10.1165C59.486 10.1046 59.7039 10.141 59.9062 10.223C60.1085 10.3051 60.2902 10.4307 60.4383 10.5911C60.5864 10.7514 60.6973 10.9425 60.7631 11.1506C60.8289 11.3587 60.8479 11.5788 60.8188 11.7952V14.7024H59.9292V12.0144C59.9292 11.2952 59.5942 10.9309 58.9663 10.9309C58.8136 10.9184 58.6599 10.9394 58.5162 10.9924C58.3724 11.0455 58.2419 11.1293 58.1339 11.238C58.0259 11.3468 57.943 11.4778 57.8909 11.6219C57.8389 11.7661 57.8189 11.9198 57.8325 12.0725V14.7024H56.9438L56.9439 8.44165Z" fill="white"/>
<path d="M61.9358 13.4287C61.9358 12.6182 62.5393 12.1509 63.6106 12.0845L64.8303 12.0142V11.6255C64.8303 11.1499 64.5159 10.8813 63.9084 10.8813C63.4123 10.8813 63.0686 11.0635 62.97 11.3818H62.1096C62.2004 10.6084 62.928 10.1123 63.9495 10.1123C65.0784 10.1123 65.7146 10.6743 65.7146 11.6255V14.7021H64.8596V14.0693H64.7893C64.6466 14.2963 64.4462 14.4814 64.2086 14.6056C63.971 14.7298 63.7046 14.7887 63.4368 14.7763C63.2478 14.796 63.0567 14.7758 62.8759 14.7171C62.6952 14.6584 62.5287 14.5625 62.3873 14.4355C62.2459 14.3086 62.1326 14.1534 62.0549 13.98C61.9771 13.8065 61.9365 13.6188 61.9358 13.4287ZM64.8303 13.0439V12.6675L63.7307 12.7378C63.1106 12.7793 62.8293 12.9902 62.8293 13.3872C62.8293 13.7925 63.1809 14.0283 63.6643 14.0283C63.806 14.0427 63.9491 14.0284 64.0851 13.9863C64.2211 13.9442 64.3472 13.8752 64.456 13.7833C64.5648 13.6915 64.654 13.5787 64.7183 13.4517C64.7826 13.3246 64.8207 13.186 64.8303 13.0439Z" fill="white"/>
<path d="M67.1058 10.1993H67.9613V10.8897H68.0277C68.1235 10.6501 68.2927 10.4469 68.5112 10.3094C68.7296 10.1719 68.986 10.1072 69.2435 10.1246C69.3766 10.1228 69.5096 10.1352 69.64 10.1617V11.0387C69.4769 11.0038 69.3107 10.9859 69.1439 10.985C68.9973 10.9718 68.8497 10.9895 68.7103 11.0368C68.571 11.0841 68.443 11.1601 68.3348 11.2597C68.2266 11.3594 68.1404 11.4807 68.0818 11.6157C68.0232 11.7507 67.9934 11.8964 67.9945 12.0436V14.7023H67.1058L67.1058 10.1993Z" fill="white"/>
<path d="M70.4573 15.153H71.3665C71.4417 15.4797 71.8176 15.6906 72.4172 15.6906C73.1575 15.6906 73.596 15.3391 73.596 14.7439V13.8796H73.5295C73.3902 14.1215 73.1866 14.3202 72.9413 14.4537C72.6961 14.5872 72.4187 14.6502 72.1399 14.636C70.9905 14.636 70.2795 13.7473 70.2795 12.3991C70.2795 11.0261 70.9983 10.1247 72.1487 10.1247C72.4345 10.1148 72.7176 10.1836 72.9669 10.3236C73.2163 10.4636 73.4224 10.6695 73.5627 10.9187H73.633V10.1994H74.4846V14.7394C74.4846 15.7692 73.678 16.4225 72.4045 16.4225C71.2795 16.4226 70.552 15.9182 70.4573 15.153ZM73.6125 12.3947C73.6125 11.4977 73.1487 10.9231 72.3919 10.9231C71.6272 10.9231 71.1975 11.4978 71.1975 12.3947C71.1975 13.2922 71.6272 13.8669 72.3919 13.8669C73.1536 13.8669 73.6125 13.2966 73.6125 12.3947Z" fill="white"/>
<path d="M79.7079 13.4864C79.5872 13.898 79.3256 14.2539 78.9689 14.4921C78.6122 14.7302 78.1831 14.8354 77.7568 14.7891C77.4601 14.797 77.1653 14.7402 76.8928 14.6226C76.6203 14.5051 76.3766 14.3297 76.1787 14.1085C75.9808 13.8874 75.8334 13.6258 75.7467 13.342C75.66 13.0582 75.6361 12.7589 75.6767 12.4649C75.6372 12.17 75.6615 11.8701 75.748 11.5854C75.8345 11.3008 75.9811 11.038 76.178 10.8149C76.3748 10.5918 76.6173 10.4137 76.889 10.2925C77.1608 10.1713 77.4553 10.1098 77.7528 10.1124C79.0058 10.1124 79.7616 10.9684 79.7616 12.3824V12.6924H76.582V12.7422C76.568 12.9075 76.5888 13.0738 76.6429 13.2306C76.6971 13.3873 76.7833 13.531 76.8962 13.6525C77.0092 13.7739 77.1462 13.8705 77.2986 13.9359C77.451 14.0013 77.6154 14.0341 77.7812 14.0322C77.9937 14.0578 78.2091 14.0195 78.3999 13.9223C78.5906 13.8251 78.7482 13.6733 78.8525 13.4863L79.7079 13.4864ZM76.5819 12.0352H78.8563C78.8675 11.8841 78.847 11.7323 78.796 11.5896C78.7451 11.4469 78.6648 11.3164 78.5604 11.2065C78.4561 11.0967 78.3299 11.0099 78.1899 10.9517C78.05 10.8935 77.8994 10.8653 77.7479 10.8687C77.5942 10.8668 77.4417 10.8957 77.2993 10.9536C77.157 11.0116 77.0276 11.0974 76.919 11.2061C76.8103 11.3148 76.7245 11.4442 76.6666 11.5866C76.6087 11.729 76.5799 11.8815 76.5819 12.0352Z" fill="white"/>
<path d="M80.9547 10.1993H81.8102V10.8897H81.8766C81.9724 10.6501 82.1417 10.4469 82.3601 10.3094C82.5786 10.1719 82.8349 10.1072 83.0925 10.1246C83.2256 10.1228 83.3585 10.1352 83.4889 10.1617V11.0387C83.3259 11.0038 83.1596 10.9859 82.9929 10.985C82.8463 10.9718 82.6986 10.9895 82.5592 11.0368C82.4199 11.0841 82.2919 11.16 82.1837 11.2597C82.0754 11.3594 81.9892 11.4807 81.9306 11.6157C81.872 11.7506 81.8423 11.8964 81.8434 12.0436V14.7023H80.9547V10.1993Z" fill="white"/>
<path d="M86.6907 12.449C86.6907 11.0261 87.4221 10.1248 88.5598 10.1248C88.8412 10.1118 89.1205 10.1792 89.3651 10.3191C89.6096 10.459 89.8092 10.6656 89.9407 10.9148H90.0071V8.44165H90.8958V14.7024H90.0442V13.991H89.9739C89.8323 14.2385 89.6256 14.4425 89.3764 14.581C89.1271 14.7195 88.8448 14.7871 88.5598 14.7766C87.4143 14.7766 86.6907 13.8752 86.6907 12.449ZM87.6087 12.449C87.6087 13.4041 88.0589 13.9788 88.8118 13.9788C89.5608 13.9788 90.0237 13.3958 90.0237 12.4529C90.0237 11.5144 89.5559 10.9231 88.8118 10.9231C88.0637 10.9231 87.6087 11.5017 87.6087 12.449Z" fill="white"/>
<path d="M92.0966 13.4287C92.0966 12.6182 92.7001 12.1509 93.7714 12.0845L94.9911 12.0142V11.6255C94.9911 11.1499 94.6766 10.8813 94.0692 10.8813C93.5731 10.8813 93.2294 11.0635 93.1307 11.3818H92.2704C92.3612 10.6084 93.0887 10.1123 94.1102 10.1123C95.2391 10.1123 95.8759 10.6743 95.8759 11.6255V14.7021H95.0204V14.0693H94.9501C94.8074 14.2963 94.607 14.4814 94.3693 14.6056C94.1317 14.7298 93.8654 14.7887 93.5975 14.7763C93.4085 14.796 93.2175 14.7758 93.0367 14.7171C92.8559 14.6584 92.6895 14.5625 92.5481 14.4355C92.4066 14.3086 92.2934 14.1534 92.2156 13.98C92.1379 13.8065 92.0973 13.6188 92.0966 13.4287ZM94.9911 13.0439V12.6675L93.8915 12.7378C93.2714 12.7793 92.9901 12.9902 92.9901 13.3872C92.9901 13.7925 93.3417 14.0283 93.8251 14.0283C93.9668 14.0426 94.1098 14.0283 94.2458 13.9862C94.3819 13.9442 94.508 13.8751 94.6168 13.7833C94.7256 13.6915 94.8148 13.5787 94.8791 13.4517C94.9434 13.3246 94.9815 13.186 94.9911 13.0439Z" fill="white"/>
<path d="M97.2672 10.1993H98.1227V10.9146H98.1891C98.3017 10.6577 98.4917 10.4423 98.7326 10.2985C98.9735 10.1547 99.2532 10.0896 99.5328 10.1123C99.7519 10.0959 99.9719 10.1289 100.177 10.209C100.381 10.2891 100.565 10.4142 100.715 10.575C100.864 10.7359 100.976 10.9283 101.041 11.1382C101.106 11.348 101.124 11.5698 101.091 11.7871V14.7021H100.203V12.0103C100.203 11.2867 99.8883 10.9268 99.2311 10.9268C99.0823 10.9199 98.9338 10.9452 98.7958 11.001C98.6577 11.0569 98.5334 11.1419 98.4312 11.2503C98.3291 11.3586 98.2516 11.4878 98.2041 11.629C98.1566 11.7701 98.1401 11.9198 98.1559 12.0679V14.7022H97.2672V10.1993Z" fill="white"/>
<path d="M104.112 10.1123C105.124 10.1123 105.786 10.5835 105.873 11.3774H105.021C104.939 11.0469 104.615 10.8359 104.112 10.8359C103.615 10.8359 103.239 11.0713 103.239 11.4229C103.239 11.6919 103.466 11.8613 103.954 11.9731L104.702 12.1465C105.559 12.3452 105.96 12.7134 105.96 13.375C105.96 14.2227 105.17 14.7891 104.095 14.7891C103.024 14.7891 102.325 14.3052 102.246 13.5073H103.136C103.213 13.6972 103.351 13.8559 103.529 13.9578C103.706 14.0597 103.913 14.099 104.115 14.0693C104.669 14.0693 105.063 13.8213 105.063 13.4614C105.063 13.1929 104.852 13.019 104.401 12.9116L103.615 12.7295C102.759 12.5268 102.363 12.1426 102.363 11.4726C102.363 10.6743 103.094 10.1123 104.112 10.1123Z" fill="white"/>
<path d="M35.6962 18.0671H37.5555V30.4856H35.6962V18.0671Z" fill="white"/>
<path d="M39.7958 22.6111L40.8114 18.0671H42.618L41.3876 22.6111H39.7958Z" fill="white"/>
<path d="M49.644 27.1291H44.9107L43.7739 30.4856H41.769L46.2524 18.0671H48.3354L52.8188 30.4856H50.7798L49.644 27.1291ZM45.4009 25.5803H49.1529L47.3033 20.1326H47.2515L45.4009 25.5803Z" fill="white"/>
<path d="M62.4998 25.959C62.4998 28.7725 60.9939 30.5801 58.7215 30.5801C58.1458 30.6102 57.5733 30.4776 57.0695 30.1974C56.5657 29.9173 56.151 29.501 55.8728 28.9961H55.8298V33.4804H53.9714V21.4311H55.7703V22.937H55.8044C56.0954 22.4345 56.5171 22.0203 57.0248 21.7385C57.5324 21.4566 58.1069 21.3177 58.6873 21.3364C60.9851 21.3364 62.4998 23.1528 62.4998 25.959ZM60.5896 25.959C60.5896 24.1255 59.6424 22.9204 58.197 22.9204C56.7771 22.9204 55.822 24.1509 55.822 25.959C55.822 27.7832 56.7771 29.0049 58.197 29.0049C59.6424 29.0049 60.5896 27.8086 60.5896 25.959Z" fill="white"/>
<path d="M72.4635 25.959C72.4635 28.7725 70.9576 30.5801 68.6852 30.5801C68.1095 30.6102 67.537 30.4776 67.0332 30.1974C66.5294 29.9173 66.1147 29.501 65.8366 28.9961H65.7936V33.4804H63.9357V21.4311H65.734V22.937H65.7682C66.0592 22.4345 66.4809 22.0203 66.9885 21.7385C67.4962 21.4566 68.0707 21.3177 68.651 21.3364C70.9489 21.3364 72.4635 23.1528 72.4635 25.959ZM70.5533 25.959C70.5533 24.1255 69.6061 22.9204 68.1608 22.9204C66.7408 22.9204 65.7858 24.1509 65.7858 25.959C65.7858 27.7832 66.7408 29.0049 68.1608 29.0049C69.6061 29.0049 70.5533 27.8086 70.5533 25.959Z" fill="white"/>
<path d="M79.0487 27.0256C79.1864 28.2571 80.3827 29.0656 82.0175 29.0656C83.5839 29.0656 84.7108 28.257 84.7108 27.1467C84.7108 26.1828 84.0311 25.6057 82.4218 25.2102L80.8124 24.822C78.5321 24.2712 77.4735 23.2048 77.4735 21.4744C77.4735 19.3318 79.3407 17.8601 81.992 17.8601C84.616 17.8601 86.4149 19.3318 86.4754 21.4744H84.5995C84.4872 20.2351 83.4628 19.4871 81.9657 19.4871C80.4686 19.4871 79.4442 20.2439 79.4442 21.3455C79.4442 22.2234 80.0985 22.74 81.6991 23.1355L83.0673 23.4714C85.6151 24.0739 86.6737 25.0979 86.6737 26.9143C86.6737 29.2375 84.8231 30.6926 81.8798 30.6926C79.1259 30.6926 77.2665 29.2717 77.1464 27.0256L79.0487 27.0256Z" fill="white"/>
<path d="M90.6849 19.2888V21.4314H92.4065V22.9031H90.6849V27.8948C90.6849 28.6702 91.0296 29.0315 91.7864 29.0315C91.9908 29.0279 92.1949 29.0136 92.3978 28.9885V30.4514C92.0575 30.515 91.7116 30.5438 91.3655 30.5373C89.5325 30.5373 88.8177 29.8488 88.8177 28.093V22.9031H87.5012V21.4314H88.8176V19.2888H90.6849Z" fill="white"/>
<path d="M93.4022 25.959C93.4022 23.1099 95.08 21.3198 97.6962 21.3198C100.321 21.3198 101.991 23.1098 101.991 25.959C101.991 28.8154 100.33 30.5977 97.6962 30.5977C95.0634 30.5976 93.4022 28.8154 93.4022 25.959ZM100.098 25.959C100.098 24.0044 99.202 22.8511 97.6962 22.8511C96.1903 22.8511 95.2958 24.0132 95.2958 25.959C95.2958 27.9209 96.1903 29.0654 97.6962 29.0654C99.202 29.0654 100.098 27.9209 100.098 25.959Z" fill="white"/>
<path d="M103.523 21.4313H105.295V22.9723H105.338C105.458 22.491 105.74 22.0657 106.137 21.7678C106.533 21.4699 107.02 21.3176 107.516 21.3365C107.73 21.3358 107.944 21.359 108.153 21.4059V23.1441C107.882 23.0615 107.6 23.0236 107.318 23.0318C107.048 23.0209 106.778 23.0685 106.529 23.1714C106.279 23.2744 106.054 23.4301 105.87 23.6281C105.686 23.826 105.547 24.0614 105.463 24.3182C105.378 24.5749 105.35 24.8468 105.381 25.1153V30.4854H103.523L103.523 21.4313Z" fill="white"/>
<path d="M116.72 27.8262C116.47 29.4697 114.869 30.5977 112.821 30.5977C110.187 30.5977 108.553 28.833 108.553 26.002C108.553 23.1616 110.196 21.3198 112.743 21.3198C115.248 21.3198 116.823 23.0405 116.823 25.7861V26.4229H110.429V26.5352C110.399 26.8684 110.441 27.204 110.551 27.5199C110.661 27.8357 110.837 28.1245 111.068 28.367C111.298 28.6096 111.577 28.8003 111.887 28.9266C112.197 29.053 112.53 29.1119 112.864 29.0996C113.303 29.1408 113.744 29.039 114.121 28.8096C114.498 28.5802 114.79 28.2352 114.955 27.8262L116.72 27.8262ZM110.438 25.124H114.964C114.981 24.8244 114.935 24.5245 114.831 24.2433C114.726 23.962 114.564 23.7054 114.356 23.4896C114.147 23.2738 113.896 23.1034 113.619 22.9891C113.341 22.8749 113.043 22.8192 112.743 22.8257C112.441 22.8239 112.14 22.882 111.86 22.9968C111.58 23.1116 111.326 23.2807 111.111 23.4944C110.897 23.7081 110.727 23.9621 110.611 24.2418C110.496 24.5215 110.437 24.8213 110.438 25.124Z" fill="white"/>
</g>
</g>
</g>
<defs>
<clipPath id="clip0_4_463">
<rect width="126.5" height="40" fill="white" transform="translate(0.5)"/>
</clipPath>
<clipPath id="clip1_4_463">
<rect width="126.5" height="40" fill="white" transform="translate(0.5)"/>
</clipPath>
<clipPath id="clip2_4_463">
<rect width="126.5" height="39.9976" fill="white" transform="translate(0.5 0.0012207)"/>
</clipPath>
</defs>
</svg>
