<svg width="24" height="25" viewBox="0 0 24 25" fill="none" xmlns="http://www.w3.org/2000/svg">
<g id="ph:arrow-right-bold">
<path id="Vector" d="M21.0459 13.0514L14.2959 19.8014C14.0846 20.0128 13.7979 20.1315 13.4991 20.1315C13.2002 20.1315 12.9135 20.0128 12.7022 19.8014C12.4908 19.5901 12.3721 19.3034 12.3721 19.0046C12.3721 18.7057 12.4908 18.419 12.7022 18.2077L17.5312 13.3805H3.75C3.45163 13.3805 3.16548 13.262 2.9545 13.051C2.74353 12.84 2.625 12.5539 2.625 12.2555C2.625 11.9571 2.74353 11.671 2.9545 11.46C3.16548 11.249 3.45163 11.1305 3.75 11.1305H17.5312L12.7041 6.30049C12.4927 6.08915 12.374 5.8025 12.374 5.50361C12.374 5.20473 12.4927 4.91808 12.7041 4.70674C12.9154 4.4954 13.2021 4.37666 13.5009 4.37666C13.7998 4.37666 14.0865 4.4954 14.2978 4.70674L21.0478 11.4567C21.1527 11.5614 21.2359 11.6857 21.2926 11.8226C21.3493 11.9595 21.3784 12.1063 21.3782 12.2545C21.3781 12.4026 21.3486 12.5493 21.2916 12.6861C21.2346 12.8229 21.1511 12.947 21.0459 13.0514Z" fill="white"/>
</g>
</svg>
