<svg width="16" height="10" viewBox="0 0 16 10" fill="none" xmlns="http://www.w3.org/2000/svg">
<path id="Vector" fill-rule="evenodd" clip-rule="evenodd" d="M1.3331 0.333313C1.06942 0.333369 0.81168 0.411601 0.592459 0.558119C0.373238 0.704636 0.202379 0.912862 0.101482 1.15647C0.000585517 1.40008 -0.0258198 1.66813 0.0256055 1.92674C0.0770307 2.18536 0.203978 2.42292 0.390397 2.60939L7.0573 9.2763C7.30735 9.52627 7.64644 9.66669 8 9.66669C8.35357 9.66669 8.69265 9.52627 8.9427 9.2763L15.6096 2.60939C15.796 2.42292 15.923 2.18536 15.9744 1.92674C16.0258 1.66813 15.9994 1.40008 15.8985 1.15647C15.7976 0.912862 15.6268 0.704636 15.4075 0.558119C15.1883 0.411601 14.9306 0.333369 14.6669 0.333313H1.3331Z" fill="#464754"/>
</svg>
